<svg width="85" height="23" viewBox="0 0 85 23" fill="none" xmlns="http://www.w3.org/2000/svg">
<path d="M77.0048 22.5144H65.4918V0.127922H76.3972C80.4907 0.127922 83.369 2.11073 83.369 5.78851C83.369 7.9632 82.1217 9.49827 80.7466 10.1379C81.8339 10.3937 82.8253 11.0333 83.6888 12.0887C84.5523 13.1441 85 14.4553 85 16.0863C85 18.0051 84.2644 19.5722 82.7933 20.7555C81.3542 21.9388 79.4034 22.5144 77.0048 22.5144ZM71.2483 12.9522V17.7173H75.8855C77.6444 17.7173 78.6998 16.8538 78.6998 15.3507C78.6998 13.8476 77.5805 12.9522 75.8855 12.9522H71.2483ZM71.2483 4.79711V8.69875H75.5337C76.9409 8.69875 77.8363 7.9632 77.8363 6.77991C77.8363 5.53266 76.9409 4.79711 75.5337 4.79711H71.2483Z" fill="#A29BFE"/>
<path d="M44.7603 22.5144H38.6839L48.0863 0H53.6189L63.0213 22.5144H56.849H56.2517C56.531 22.4845 56.6855 22.1756 56.5419 21.9342L52.0942 14.4553H49.5358L45.0955 21.8891C44.9396 22.1502 45.1084 22.4847 45.411 22.5144H44.7603ZM49.3935 10.4754C49.4846 10.5664 49.5358 10.69 49.5358 10.8187V14.4553H52.0942V10.8187C52.0942 10.69 52.1454 10.5664 52.2365 10.4754C52.42 10.2918 52.29 9.97799 52.0304 9.97799H49.5996C49.34 9.97799 49.21 10.2918 49.3935 10.4754Z" fill="#A29BFE"/>
<path d="M37.5206 22.5144H21.0186V0.127922H26.7751V17.4615H37.5206V22.5144Z" fill="#A29BFE"/>
<path d="M5.75653 22.5144H0V0.127922H9.97798C12.4725 0.127922 14.4553 0.767538 15.9264 2.07875C17.3975 3.38995 18.1331 5.05295 18.1331 7.1317C18.1331 9.21045 17.3975 10.9054 15.9264 12.2166C14.4553 13.5278 12.4725 14.1675 9.97798 14.1675H5.75653V22.5144ZM5.75653 4.98899V9.43431H9.56223C11.2252 9.43431 12.3126 8.60281 12.3126 7.19566C12.3126 5.78851 11.2572 4.98899 9.56223 4.98899H5.75653Z" fill="#A29BFE"/>
<circle cx="51.599" cy="9.31981" r="0.319807" fill="white"/>
<circle cx="52.3986" cy="7.77971" r="0.479711" fill="white"/>
<circle cx="50.8635" cy="5.86348" r="0.863479" fill="white"/>
</svg>
