<svg width="24" height="24" viewBox="0 0 24 24" fill="none" xmlns="http://www.w3.org/2000/svg">
<path d="M9.27205 2.406C9.35086 2.22879 9.37643 2.0325 9.34566 1.84102C9.3149 1.64954 9.22911 1.47113 9.09876 1.32754C8.96841 1.18394 8.79912 1.08134 8.6115 1.03224C8.42388 0.983144 8.22604 0.989659 8.04205 1.051C6.59005 1.535 5.43205 2.488 4.37005 3.55C3.30245 4.60967 2.45512 5.87015 1.8769 7.25879C1.29867 8.64743 1.00098 10.1368 1.00098 11.641C1.00098 13.1452 1.29867 14.6346 1.8769 16.0232C2.45512 17.4118 3.30245 18.6723 4.37005 19.732C8.88805 24.251 15.8801 23.993 20.3461 19.527C21.4081 18.465 22.3601 17.307 22.8441 15.854C22.9034 15.6754 22.9112 15.4836 22.8664 15.3008C22.8217 15.1179 22.7262 14.9515 22.591 14.8205C22.4558 14.6895 22.2864 14.5993 22.1023 14.5603C21.9181 14.5213 21.7267 14.535 21.5501 14.6C17.9601 15.922 13.8751 15.334 11.1171 12.575C8.35005 9.808 7.78805 5.744 9.27205 2.406Z" fill="white"/>
</svg>
